<svg width="98" height="25" viewBox="0 0 98 25" fill="none" xmlns="http://www.w3.org/2000/svg">
<path d="M13.7178 1.24121C13.7178 1.3916 13.6748 1.53125 13.5889 1.66016C13.4098 1.92513 13.1413 2.05762 12.7832 2.05762H7.87402C6.72819 11.0954 6.12305 15.7826 6.05859 16.1191C6.05143 16.1621 6.04427 16.2051 6.03711 16.248C5.92253 16.7493 5.63249 17 5.16699 17C4.99512 17 4.84473 16.9535 4.71582 16.8604C4.44368 16.6742 4.30762 16.3734 4.30762 15.958C4.30762 15.8721 4.74089 12.6064 5.60742 6.16113C5.90104 3.99121 6.08366 2.62337 6.15527 2.05762H1.56836C1.40365 2.05762 1.24609 2.03255 1.0957 1.98242C0.716146 1.85352 0.526367 1.61719 0.526367 1.27344C0.526367 1.10156 0.569336 0.94043 0.655273 0.790039C0.827148 0.503581 1.0957 0.360352 1.46094 0.360352H12.8047C12.9049 0.360352 13.0124 0.381836 13.127 0.424805C13.5208 0.575195 13.7178 0.847331 13.7178 1.24121ZM16.1133 14.3896C16.1133 14.3968 16.1169 14.404 16.124 14.4111C16.3532 15.0771 16.6576 15.4102 17.0371 15.4102C17.2591 15.3958 17.6172 15.2383 18.1113 14.9375C18.5553 14.6439 18.8883 14.4971 19.1104 14.4971C19.2178 14.4971 19.3252 14.5329 19.4326 14.6045C19.6188 14.7477 19.7119 14.9124 19.7119 15.0986C19.6833 15.4925 19.4004 15.9007 18.8633 16.3232C18.2188 16.7887 17.5384 17.0215 16.8223 17.0215C16.3496 17.0215 15.9414 16.8997 15.5977 16.6562C14.7956 16.0833 14.3945 14.9196 14.3945 13.165C14.3945 12.8213 14.4089 12.4596 14.4375 12.0801C14.4948 11.3496 14.5521 10.902 14.6094 10.7373C14.1367 10.9808 13.6462 11.1025 13.1377 11.1025C13.0804 11.1025 12.9945 11.0954 12.8799 11.0811C12.8226 11.0739 12.7796 11.0703 12.751 11.0703C12.7295 11.0846 12.6471 11.1312 12.5039 11.21C12.0241 11.4893 11.6374 11.6289 11.3438 11.6289C11.2578 11.6289 11.1683 11.6074 11.0752 11.5645C10.8532 11.4499 10.7422 11.2852 10.7422 11.0703C10.7422 11.0345 10.7458 10.9987 10.7529 10.9629C10.7744 10.8197 10.8854 10.6693 11.0859 10.5117C11.1647 10.4544 11.222 10.4079 11.2578 10.3721C10.8138 9.96387 10.5882 9.40527 10.5811 8.69629C10.5811 8.38835 10.6562 8.10189 10.8066 7.83691C11.1217 7.28548 11.623 7.00977 12.3105 7.00977C12.6615 7.00977 12.9945 7.10286 13.3096 7.28906C13.8252 7.61133 14.083 8.05534 14.083 8.62109C14.083 8.95768 14.0329 9.26204 13.9326 9.53418C14.04 9.48405 14.2262 9.36589 14.4912 9.17969C15.0355 8.80729 15.4186 8.62109 15.6406 8.62109C15.9342 8.62826 16.1813 8.71777 16.3818 8.88965C16.4893 8.98275 16.5465 9.08659 16.5537 9.20117C16.5537 9.24414 16.543 9.30859 16.5215 9.39453C16.5 9.45898 16.4893 9.50553 16.4893 9.53418C16.1169 10.7946 15.9307 11.876 15.9307 12.7783C15.9307 13.1722 15.9772 13.6162 16.0703 14.1104C16.0918 14.2393 16.1061 14.3324 16.1133 14.3896ZM12.7295 8.76074C12.7295 8.71061 12.7223 8.6569 12.708 8.59961C12.6436 8.42057 12.5111 8.33105 12.3105 8.33105C12.2676 8.33105 12.221 8.33822 12.1709 8.35254C11.9704 8.41699 11.8701 8.55306 11.8701 8.76074C11.8773 9.09733 12.0563 9.35514 12.4072 9.53418C12.6149 9.31217 12.7223 9.05436 12.7295 8.76074ZM18.4121 13.627C18.4121 13.3835 18.4264 13.1257 18.4551 12.8535C18.6055 11.6217 18.9922 10.5296 19.6152 9.57715C20.3743 8.41699 21.2874 7.83691 22.3545 7.83691C22.8128 7.83691 23.2139 7.92643 23.5576 8.10547C23.7008 7.93359 23.8978 7.84408 24.1484 7.83691C24.2917 7.83691 24.3812 7.84766 24.417 7.86914C24.7249 7.9694 24.8789 8.27376 24.8789 8.78223C24.8789 8.98991 24.8431 9.4375 24.7715 10.125C24.5495 12.1589 24.4385 13.4229 24.4385 13.917C24.4385 14.2464 24.5065 14.5544 24.6426 14.8408C24.8431 15.2705 25.1081 15.4854 25.4375 15.4854C25.502 15.4854 25.57 15.4782 25.6416 15.4639C25.8564 15.4209 26.1644 15.2562 26.5654 14.9697C26.9593 14.6833 27.2744 14.54 27.5107 14.54C27.6038 14.54 27.7005 14.5723 27.8008 14.6367C28.0085 14.7799 28.1123 14.9697 28.1123 15.2061C28.0908 15.5785 27.8079 15.9652 27.2637 16.3662C26.612 16.8245 25.9209 17.0537 25.1904 17.0537C24.2881 17.0465 23.6221 16.5918 23.1924 15.6895C23.0921 15.8112 22.9775 15.9329 22.8486 16.0547C22.1396 16.7207 21.4199 17.0537 20.6895 17.0537C20.2311 17.0537 19.8337 16.9355 19.4971 16.6992C18.7738 16.1693 18.4121 15.1452 18.4121 13.627ZM23.1387 10.0928C23.1387 10.0928 23.1637 9.84928 23.2139 9.3623C23.0563 9.28353 22.8916 9.24414 22.7197 9.24414C22.5908 9.24414 22.4583 9.26204 22.3223 9.29785C21.6562 9.48405 21.0941 10.0999 20.6357 11.1455C20.2275 12.0837 20.0234 13.0254 20.0234 13.9707C20.0234 14.0065 20.0234 14.0423 20.0234 14.0781C20.0449 14.9518 20.2669 15.3887 20.6895 15.3887C20.9115 15.3815 21.1836 15.2598 21.5059 15.0234C21.8353 14.7871 22.0752 14.5651 22.2256 14.3574C22.3187 14.2214 22.444 13.8239 22.6016 13.165C22.888 11.9404 23.0671 10.9163 23.1387 10.0928ZM29.2939 7.90137C29.8024 7.90853 30.0638 8.19141 30.0781 8.75C30.0781 8.86458 30.0387 9.15104 29.96 9.60938C29.6807 11.2493 29.541 12.4346 29.541 13.165C29.541 14.5902 29.9313 15.3099 30.7119 15.3242C31.2132 15.3242 31.7074 15.0951 32.1943 14.6367C32.8317 14.0495 33.3617 13.2295 33.7842 12.1768C33.4762 12.1266 33.1898 12.0371 32.9248 11.9082C32.1084 11.5072 31.7002 10.8197 31.7002 9.8457C31.7002 9.37305 31.8721 8.96126 32.2158 8.61035C32.6025 8.21647 33.0573 8.01953 33.5801 8.01953C34.0885 8.01953 34.5326 8.15918 34.9121 8.43848C35.4134 8.81803 35.6641 9.33008 35.6641 9.97461C35.6641 10.0176 35.6569 10.2002 35.6426 10.5225C35.7643 10.4652 35.9183 10.3792 36.1045 10.2646C36.3766 10.0928 36.6058 10.0068 36.792 10.0068C36.8923 10.0068 36.9889 10.0355 37.082 10.0928C37.3255 10.2288 37.4473 10.4329 37.4473 10.7051C37.4473 10.8698 37.3864 11.0309 37.2646 11.1885C36.9352 11.5895 36.2979 11.8903 35.3525 12.0908C35.0589 13.1077 34.6328 14.0173 34.0742 14.8193C33.0645 16.2731 31.8721 17 30.4971 17C29.8096 16.9928 29.2474 16.7243 28.8105 16.1943C28.2161 15.4352 27.9189 14.2786 27.9189 12.7246C27.9189 11.5645 28.0479 10.415 28.3057 9.27637C28.3057 9.26204 28.3092 9.24414 28.3164 9.22266C28.5241 8.35612 28.8499 7.91569 29.2939 7.90137ZM33.7305 9.5127C33.6589 9.5127 33.5837 9.52702 33.5049 9.55566C33.2757 9.6416 33.1611 9.79915 33.1611 10.0283C33.1683 10.4365 33.5085 10.6729 34.1816 10.7373C34.2174 10.5726 34.2354 10.4007 34.2354 10.2217C34.2354 10.1787 34.2318 10.1322 34.2246 10.082C34.1816 9.70247 34.0169 9.5127 33.7305 9.5127ZM36.1904 13.7129C36.1904 13.4694 36.2048 13.2116 36.2334 12.9395C36.3838 11.7148 36.7705 10.6263 37.3936 9.67383C38.1527 8.50651 39.0658 7.92285 40.1328 7.92285C40.4193 7.92285 40.695 7.95866 40.96 8.03027C41.9053 8.30241 42.3779 8.96842 42.3779 10.0283C42.3779 10.1071 42.3743 10.1895 42.3672 10.2754C42.2956 11.235 41.8659 12.0407 41.0781 12.6924C40.3047 13.3369 39.4059 13.6592 38.3818 13.6592C38.1885 13.6592 37.9987 13.6413 37.8125 13.6055C37.7982 13.7129 37.791 13.8633 37.791 14.0566C37.791 14.472 37.8626 14.7943 38.0059 15.0234C38.1992 15.3171 38.5967 15.4889 39.1982 15.5391C39.4632 15.5391 39.7246 15.5104 39.9824 15.4531C40.4336 15.3457 40.9671 15.0915 41.583 14.6904C41.984 14.4255 42.2669 14.293 42.4316 14.293C42.5247 14.293 42.6214 14.3216 42.7217 14.3789C42.9508 14.515 43.0654 14.7119 43.0654 14.9697C43.0654 15.0557 43.0475 15.1488 43.0117 15.249C42.8184 15.7145 42.2383 16.1549 41.2715 16.5703C40.3763 16.957 39.5885 17.1504 38.9082 17.1504C38.6504 17.1504 38.4105 17.1289 38.1885 17.0859C36.8564 16.8138 36.1904 15.6895 36.1904 13.7129ZM39.6387 9.60938C38.987 10.0462 38.4749 10.877 38.1025 12.1016C38.2816 12.1445 38.4535 12.166 38.6182 12.166C39.2126 12.166 39.7318 11.9834 40.1758 11.6182C40.6699 11.2171 40.917 10.7409 40.917 10.1895C40.917 9.63802 40.7415 9.35872 40.3906 9.35156C40.14 9.35872 39.8893 9.44466 39.6387 9.60938ZM47.7383 17C46.0124 16.9284 44.734 15.8757 43.9033 13.8418C43.2874 12.3092 42.9795 10.4329 42.9795 8.21289C42.9795 8.09831 42.9867 7.9515 43.001 7.77246C43.1012 6.26139 43.3805 4.87565 43.8389 3.61523C44.5837 1.58138 45.6364 0.564453 46.9971 0.564453C47.0687 0.564453 47.1439 0.568034 47.2227 0.575195C48.4616 0.653971 49.0811 1.3737 49.0811 2.73438C49.0811 4.2168 48.4437 5.86393 47.1689 7.67578C46.3597 8.82878 45.5111 9.76335 44.623 10.4795C44.8665 11.8402 45.1351 12.8607 45.4287 13.541C45.973 14.8014 46.7822 15.4316 47.8564 15.4316C47.9281 15.4316 48.0033 15.4245 48.082 15.4102C48.3184 15.3672 48.6478 15.1953 49.0703 14.8945C49.4785 14.6152 49.7972 14.4756 50.0264 14.4756C50.1266 14.4756 50.2233 14.5078 50.3164 14.5723C50.5241 14.7155 50.6279 14.9089 50.6279 15.1523C50.6136 15.5247 50.3486 15.9079 49.833 16.3018C49.1885 16.7673 48.4902 17 47.7383 17ZM47.0078 2.18652C46.5853 2.19368 46.2129 2.3763 45.8906 2.73438C45.0742 3.6582 44.6266 5.58822 44.5479 8.52441C44.9775 8.08757 45.4072 7.57194 45.8369 6.97754C47.0257 5.35189 47.6201 3.98047 47.6201 2.86328C47.6201 2.80599 47.6058 2.73796 47.5771 2.65918C47.4626 2.34408 47.2728 2.18652 47.0078 2.18652ZM50.0371 8.99707C50.0443 8.9541 50.0479 8.91113 50.0479 8.86816C50.1481 8.11621 50.4417 7.74023 50.9287 7.74023C51.0075 7.74023 51.0863 7.7474 51.165 7.76172C51.4945 7.84049 51.6592 8.15202 51.6592 8.69629C51.6592 8.83236 51.6413 9.07943 51.6055 9.4375C52.1497 8.42057 52.9268 7.90853 53.9365 7.90137C54.2874 7.90137 54.6133 8.00879 54.9141 8.22363C55.3509 8.5459 55.5693 8.96842 55.5693 9.49121C55.5693 9.57715 55.5658 9.78483 55.5586 10.1143C55.5514 10.8376 55.5479 11.4176 55.5479 11.8545C55.5479 13.3083 55.5908 14.1641 55.6768 14.4219C55.6982 14.4863 55.7197 14.5544 55.7412 14.626C55.9489 15.1631 56.2318 15.4316 56.5898 15.4316C56.6615 15.4316 56.7367 15.4245 56.8154 15.4102C57.0231 15.36 57.3275 15.1917 57.7285 14.9053C58.1224 14.6188 58.4375 14.4756 58.6738 14.4756C58.7669 14.4756 58.8564 14.5042 58.9424 14.5615C59.1644 14.6976 59.2754 14.9089 59.2754 15.1953C59.2754 15.2168 59.2718 15.2454 59.2646 15.2812C59.2145 15.625 58.9173 15.9795 58.373 16.3447C57.707 16.7959 57.0446 17.0215 56.3857 17.0215C55.8486 17.0215 55.3939 16.8747 55.0215 16.5811C54.2552 15.9652 53.8721 14.6152 53.8721 12.5312C53.8721 12.4095 53.8757 12.2126 53.8828 11.9404C53.8971 11.5465 53.9043 11.2064 53.9043 10.9199C53.8971 10.1608 53.8112 9.76335 53.6465 9.72754C53.6178 9.72754 53.582 9.7347 53.5391 9.74902C53.1309 9.88509 52.6117 10.6908 51.9814 12.166C51.4372 13.4479 51.0863 14.5293 50.9287 15.4102L50.832 15.9795C50.7891 16.2301 50.7497 16.488 50.7139 16.7529C50.3343 19.238 50.0801 21.3184 49.9512 22.9941C49.9297 23.252 49.8581 23.4847 49.7363 23.6924C49.5286 24.0433 49.2673 24.2188 48.9521 24.2188C48.7946 24.2188 48.6514 24.1686 48.5225 24.0684C48.2861 23.875 48.168 23.5957 48.168 23.2305C48.168 23.1302 48.791 18.3857 50.0371 8.99707ZM62.6055 17C60.8796 16.9284 59.6012 15.8757 58.7705 13.8418C58.1546 12.3092 57.8467 10.4329 57.8467 8.21289C57.8467 8.09831 57.8538 7.9515 57.8682 7.77246C57.9684 6.26139 58.2477 4.87565 58.7061 3.61523C59.4508 1.58138 60.5036 0.564453 61.8643 0.564453C61.9359 0.564453 62.0111 0.568034 62.0898 0.575195C63.3288 0.653971 63.9482 1.3737 63.9482 2.73438C63.9482 4.2168 63.3109 5.86393 62.0361 7.67578C61.2269 8.82878 60.3783 9.76335 59.4902 10.4795C59.7337 11.8402 60.0023 12.8607 60.2959 13.541C60.8402 14.8014 61.6494 15.4316 62.7236 15.4316C62.7952 15.4316 62.8704 15.4245 62.9492 15.4102C63.1855 15.3672 63.515 15.1953 63.9375 14.8945C64.3457 14.6152 64.6644 14.4756 64.8936 14.4756C64.9938 14.4756 65.0905 14.5078 65.1836 14.5723C65.3913 14.7155 65.4951 14.9089 65.4951 15.1523C65.4808 15.5247 65.2158 15.9079 64.7002 16.3018C64.0557 16.7673 63.3574 17 62.6055 17ZM61.875 2.18652C61.4525 2.19368 61.0801 2.3763 60.7578 2.73438C59.9414 3.6582 59.4938 5.58822 59.415 8.52441C59.8447 8.08757 60.2744 7.57194 60.7041 6.97754C61.8929 5.35189 62.4873 3.98047 62.4873 2.86328C62.4873 2.80599 62.473 2.73796 62.4443 2.65918C62.3298 2.34408 62.14 2.18652 61.875 2.18652ZM63.6582 13.627C63.6582 13.3835 63.6725 13.1257 63.7012 12.8535C63.8516 11.6217 64.2383 10.5296 64.8613 9.57715C65.6204 8.41699 66.5335 7.83691 67.6006 7.83691C68.0589 7.83691 68.46 7.92643 68.8037 8.10547C68.9469 7.93359 69.1439 7.84408 69.3945 7.83691C69.5378 7.83691 69.6273 7.84766 69.6631 7.86914C69.971 7.9694 70.125 8.27376 70.125 8.78223C70.125 8.98991 70.0892 9.4375 70.0176 10.125C69.7956 12.1589 69.6846 13.4229 69.6846 13.917C69.6846 14.2464 69.7526 14.5544 69.8887 14.8408C70.0892 15.2705 70.3542 15.4854 70.6836 15.4854C70.748 15.4854 70.8161 15.4782 70.8877 15.4639C71.1025 15.4209 71.4105 15.2562 71.8115 14.9697C72.2054 14.6833 72.5205 14.54 72.7568 14.54C72.8499 14.54 72.9466 14.5723 73.0469 14.6367C73.2546 14.7799 73.3584 14.9697 73.3584 15.2061C73.3369 15.5785 73.054 15.9652 72.5098 16.3662C71.8581 16.8245 71.167 17.0537 70.4365 17.0537C69.5342 17.0465 68.8682 16.5918 68.4385 15.6895C68.3382 15.8112 68.2236 15.9329 68.0947 16.0547C67.3857 16.7207 66.666 17.0537 65.9355 17.0537C65.4772 17.0537 65.0798 16.9355 64.7432 16.6992C64.0199 16.1693 63.6582 15.1452 63.6582 13.627ZM68.3848 10.0928C68.3848 10.0928 68.4098 9.84928 68.46 9.3623C68.3024 9.28353 68.1377 9.24414 67.9658 9.24414C67.8369 9.24414 67.7044 9.26204 67.5684 9.29785C66.9023 9.48405 66.3402 10.0999 65.8818 11.1455C65.4736 12.0837 65.2695 13.0254 65.2695 13.9707C65.2695 14.0065 65.2695 14.0423 65.2695 14.0781C65.291 14.9518 65.513 15.3887 65.9355 15.3887C66.1576 15.3815 66.4297 15.2598 66.752 15.0234C67.0814 14.7871 67.3213 14.5651 67.4717 14.3574C67.5648 14.2214 67.6901 13.8239 67.8477 13.165C68.1341 11.9404 68.3132 10.9163 68.3848 10.0928ZM72.6924 15.8828C72.6924 15.8828 72.9967 13.584 73.6055 8.98633C73.6198 8.86458 73.6377 8.75 73.6592 8.64258C73.7881 8.02669 74.0674 7.71875 74.4971 7.71875C74.5758 7.71875 74.6546 7.72591 74.7334 7.74023C75.0628 7.81901 75.2275 8.13053 75.2275 8.6748C75.2275 8.75358 75.2204 8.88965 75.2061 9.08301C75.1989 9.21191 75.1953 9.31217 75.1953 9.38379C75.2096 9.35514 75.2275 9.3265 75.249 9.29785C75.779 8.3597 76.5345 7.89062 77.5156 7.89062C77.8665 7.89062 78.1888 7.99447 78.4824 8.20215C78.9193 8.52441 79.1377 8.95052 79.1377 9.48047C79.1377 9.56641 79.1341 9.77051 79.127 10.0928C79.1198 10.8232 79.1162 11.4033 79.1162 11.833C79.1162 13.2939 79.1592 14.1533 79.2451 14.4111C79.2666 14.4684 79.2881 14.5293 79.3096 14.5938C79.5101 15.138 79.793 15.4102 80.1582 15.4102C80.2227 15.4102 80.2943 15.403 80.373 15.3887C80.5879 15.3457 80.8958 15.1774 81.2969 14.8838C81.6908 14.6045 82.0059 14.4648 82.2422 14.4648C82.3353 14.4648 82.4248 14.4899 82.5107 14.54C82.7327 14.6689 82.8438 14.8802 82.8438 15.1738C82.8008 15.5247 82.5 15.9115 81.9414 16.334C81.2826 16.778 80.6201 17 79.9541 17C79.417 17 78.9622 16.8532 78.5898 16.5596C77.8236 15.9437 77.4404 14.5938 77.4404 12.5098C77.4404 12.3594 77.444 12.1159 77.4512 11.7793C77.4655 11.4284 77.4727 11.1348 77.4727 10.8984C77.4727 10.1322 77.3867 9.73828 77.2148 9.7168C77.1862 9.7168 77.1504 9.72396 77.1074 9.73828C76.6992 9.88867 76.1764 10.7015 75.5391 12.1768C74.9805 13.473 74.6224 14.5508 74.4648 15.4102L74.4434 15.7217C74.4219 15.9795 74.3503 16.2158 74.2285 16.4307C74.0208 16.7744 73.763 16.9463 73.4551 16.9463C73.3691 16.9463 73.2832 16.9284 73.1973 16.8926C72.8607 16.735 72.6924 16.3984 72.6924 15.8828ZM81.2969 13.5518C81.2969 13.3083 81.3148 13.0505 81.3506 12.7783C81.4938 11.5537 81.8734 10.4616 82.4893 9.50195C83.234 8.3418 84.1257 7.76172 85.1641 7.76172C85.651 7.76172 86.0915 7.8763 86.4854 8.10547C87.1514 8.49219 87.4844 9.08301 87.4844 9.87793C87.4844 9.96387 87.4808 10.0534 87.4736 10.1465C87.3949 11.3281 86.8184 12.234 85.7441 12.8643C85.0208 13.2868 84.2689 13.498 83.4883 13.498C83.2949 13.498 83.1051 13.4801 82.9189 13.4443C82.8975 13.5876 82.8867 13.7308 82.8867 13.874C82.8867 14.1318 82.9261 14.3682 83.0049 14.583C83.2126 15.113 83.6351 15.3779 84.2725 15.3779C85.1247 15.3779 85.9948 15.0521 86.8828 14.4004C87.9427 13.6055 88.8952 12.4668 89.7402 10.9844C89.6829 10.9557 89.6257 10.9271 89.5684 10.8984C88.8164 10.4831 88.4404 9.81348 88.4404 8.88965C88.4404 8.58171 88.5192 8.29167 88.6768 8.01953C88.9919 7.48242 89.4896 7.21387 90.1699 7.21387C90.528 7.21387 90.861 7.30697 91.1689 7.49316C91.6846 7.80827 91.9424 8.2487 91.9424 8.81445C91.9424 9.05794 91.8958 9.36589 91.8027 9.73828C92.0033 9.64518 92.2826 9.47331 92.6406 9.22266C93.0417 8.95052 93.3317 8.81445 93.5107 8.81445C93.7327 8.81445 93.9368 8.87533 94.123 8.99707C94.3307 9.13314 94.4346 9.26562 94.4346 9.39453C94.4346 9.4375 94.4095 9.5485 94.3594 9.72754C93.9798 11.0524 93.79 12.1374 93.79 12.9824C93.79 13.7344 93.8724 14.3395 94.0371 14.7979C94.2448 15.3421 94.5348 15.6143 94.9072 15.6143C95.1221 15.5928 95.4801 15.4352 95.9814 15.1416C96.4255 14.848 96.7549 14.7012 96.9697 14.7012C97.0771 14.7012 97.1846 14.737 97.292 14.8086C97.4782 14.9518 97.5713 15.1165 97.5713 15.3027C97.5498 15.6966 97.2705 16.1012 96.7334 16.5166C96.0889 16.9821 95.4049 17.2148 94.6816 17.2148C94.5957 17.2148 94.5062 17.2113 94.4131 17.2041C93.6182 17.1038 93.0345 16.6455 92.6621 15.8291C92.39 15.3493 92.2539 14.5293 92.2539 13.3691C92.2539 13.1471 92.2611 12.9144 92.2754 12.6709C92.3184 11.8903 92.3864 11.3138 92.4795 10.9414C92.1286 11.1133 91.7204 11.2171 91.2549 11.2529C90.639 12.5778 89.8226 13.7415 88.8057 14.7441C87.2946 16.2337 85.7012 16.9785 84.0254 16.9785C83.9753 16.9785 83.918 16.9785 83.8535 16.9785C82.1491 16.9069 81.2969 15.7646 81.2969 13.5518ZM84.7559 9.4375C84.7415 9.44466 84.7236 9.4554 84.7021 9.46973C84.0648 9.9209 83.5671 10.7445 83.209 11.9404C83.3594 11.9691 83.5277 11.9834 83.7139 11.9834C84.3226 11.9834 84.8561 11.8008 85.3145 11.4355C85.8014 11.0417 86.0449 10.5726 86.0449 10.0283C86.0449 9.95671 86.0378 9.88151 86.0234 9.80273C85.9661 9.39453 85.7943 9.18327 85.5078 9.16895C85.2428 9.20475 84.9922 9.29427 84.7559 9.4375ZM89.7402 8.96484C89.7474 9.32292 89.9515 9.59147 90.3525 9.77051C90.5101 9.40527 90.5924 9.13672 90.5996 8.96484C90.5996 8.92188 90.5924 8.87533 90.5781 8.8252C90.528 8.63184 90.3955 8.53516 90.1807 8.53516C90.1377 8.53516 90.0947 8.54232 90.0518 8.55664C89.8441 8.61393 89.7402 8.75 89.7402 8.96484Z" fill="white"/>
</svg>
