<svg width="130" height="130" viewBox="0 0 130 130" fill="none" xmlns="http://www.w3.org/2000/svg">
<path d="M119.467 129.5L74.3167 84.35C70.7333 87.2167 66.6125 89.4861 61.9542 91.1583C57.2958 92.8306 52.3389 93.6667 47.0833 93.6667C34.0639 93.6667 23.0463 89.1564 14.0307 80.136C5.015 71.1156 0.504778 60.098 0.5 47.0833C0.5 34.0639 5.01022 23.0463 14.0307 14.0307C23.0511 5.015 34.0687 0.504778 47.0833 0.5C60.1028 0.5 71.1203 5.01022 80.136 14.0307C89.1517 23.0511 93.6619 34.0687 93.6667 47.0833C93.6667 52.3389 92.8306 57.2958 91.1583 61.9542C89.4861 66.6125 87.2167 70.7333 84.35 74.3167L129.5 119.467L119.467 129.5ZM47.0833 79.3333C56.0417 79.3333 63.6574 76.1967 69.9307 69.9235C76.2039 63.6503 79.3381 56.0369 79.3333 47.0833C79.3333 38.125 76.1967 30.5092 69.9235 24.236C63.6503 17.9628 56.0369 14.8286 47.0833 14.8333C38.125 14.8333 30.5092 17.9699 24.236 24.2432C17.9628 30.5164 14.8286 38.1298 14.8333 47.0833C14.8333 56.0417 17.9699 63.6574 24.2432 69.9307C30.5164 76.2039 38.1298 79.3381 47.0833 79.3333Z" fill="#CDCDCD"/>
</svg>
